<svg width="32" height="32" viewBox="0 0 32 32" fill="none" xmlns="http://www.w3.org/2000/svg">
<path d="M7.78113 5.46001C8.44112 5.46001 9.62512 5.66401 9.62512 7.28901C9.62512 8.91401 8.45312 9.53901 7.78113 9.53901C7.10913 9.53901 6.07812 8.90101 6.07812 7.28901C6.07812 5.67601 7.21112 5.46001 7.78113 5.46001ZM4.15613 7.50001C4.81613 7.50001 6.00012 7.70301 6.00012 9.32801C6.00012 10.953 4.82812 11.578 4.15613 11.578C3.48413 11.578 2.45312 10.941 2.45312 9.32801C2.45312 7.71601 3.58613 7.50001 4.15613 7.50001ZM14.0001 7.28901C14.0001 5.66401 12.8161 5.46101 12.1561 5.46101C11.5861 5.46101 10.4531 5.67601 10.4531 7.28901C10.4531 8.90101 11.4841 9.53901 12.1561 9.53901C12.8281 9.53901 14.0001 8.91401 14.0001 7.28901ZM15.7031 7.50001C16.3631 7.50001 17.5471 7.70301 17.5471 9.32801C17.5471 10.953 16.3751 11.578 15.7031 11.578C15.0311 11.578 14.0001 10.941 14.0001 9.32801C14.0001 7.71601 15.1331 7.50001 15.7031 7.50001ZM14.9841 15.469C14.9841 12.547 13.0941 10.016 10.0001 10.016C6.90613 10.016 5.04712 12.484 5.04712 15.469C5.04712 17.953 8.00812 17.953 9.99312 17.953H10.0001C12.2031 17.953 14.9841 17.875 14.9841 15.469ZM16.1561 19.547C16.8161 19.547 18.0001 19.75 18.0001 21.375C18.0001 23 16.8281 23.625 16.1561 23.625C15.4841 23.625 14.4531 22.987 14.4531 21.375C14.4531 19.762 15.5861 19.547 16.1561 19.547ZM21.6251 19.336C21.6251 17.711 20.4411 17.508 19.7811 17.508C19.2111 17.508 18.0781 17.723 18.0781 19.336C18.0781 20.948 19.1091 21.586 19.7811 21.586C20.4531 21.586 21.6251 20.961 21.6251 19.336ZM24.1561 17.508C24.8161 17.508 26.0001 17.711 26.0001 19.336C26.0001 20.961 24.8281 21.586 24.1561 21.586C23.4841 21.586 22.4531 20.948 22.4531 19.336C22.4531 17.723 23.5861 17.508 24.1561 17.508ZM29.5471 21.375C29.5471 19.75 28.3631 19.547 27.7031 19.547C27.1331 19.547 26.0001 19.762 26.0001 21.375C26.0001 22.987 27.0311 23.625 27.7031 23.625C28.3751 23.625 29.5471 23 29.5471 21.375ZM22.0001 22.063C25.0941 22.063 26.9841 24.593 26.9841 27.516C26.9841 29.922 24.2041 30 22.0001 30H21.9921C20.0081 30 17.0471 30 17.0471 27.516C17.0471 24.531 18.9071 22.063 22.0001 22.063Z" fill="white"/>
</svg>
